Coordinates
version=1
nRows=11
nColumns=40
inDegrees=yes

Units are S.I. units (second, meters, Newtons, ...)
Angles are in degrees.

endheader
time	pelvis_tilt	pelvis_list	pelvis_rotation	pelvis_tx	pelvis_ty	pelvis_tz	hip_flexion_r	hip_adduction_r	hip_rotation_r	knee_angle_r	knee_angle_r_beta	ankle_angle_r	subtalar_angle_r	mtp_angle_r	hip_flexion_l	hip_adduction_l	hip_rotation_l	knee_angle_l	knee_angle_l_beta	ankle_angle_l	subtalar_angle_l	mtp_angle_l	lumbar_extension	lumbar_bending	lumbar_rotation	arm_flex_r	arm_add_r	arm_rot_r	elbow_flex_r	pro_sup_r	wrist_flex_r	wrist_dev_r	arm_flex_l	arm_add_l	arm_rot_l	elbow_flex_l	pro_sup_l	wrist_flex_l	wrist_dev_l
     48.74000000	     -4.62020864	     -3.16067313	      8.84380332	      0.92979267	      0.92366145	      0.54906131	      4.34142066	      4.98467847	    -14.32263671	     14.87739241	     14.87739241	     17.26574101	     -4.65985258	     -1.50811358	     28.40096146	     -7.99029026	      1.78590220	     17.22056211	     17.22056211	      7.29934227	     -1.39255165	      6.39870918	     -8.02410531	      3.84977644	      2.88322719	     54.35792588	    -19.04502334	     -5.73077854	     67.67211747	     45.07126645	      0.00000000	      0.00000000	    -16.36529440	     -8.08403809	     17.54503306	     32.45412918	     43.54093012	      0.00000000	      0.00000000
     48.76285714	     -4.57369789	     -3.47630900	      9.12813897	      0.93025090	      0.92274468	      0.54639601	      3.72624544	      5.22798979	    -14.78316540	     14.45039400	     14.45039400	     17.44568536	     -4.06432028	     -1.75910013	     28.18169812	     -8.04073217	      1.51313813	     16.85535463	     16.85535463	      5.79146503	     -0.85981523	      3.07793230	     -7.86938889	      3.98652717	      3.05243853	     55.13946155	    -19.13267187	     -5.52462450	     68.95669475	     45.05418578	      0.00000000	      0.00000000	    -16.08906897	     -7.91386370	     18.57203800	     32.03529164	     43.54074142	      0.00000000	      0.00000000
     48.78571429	     -4.63802133	     -3.69020601	      9.33629992	      0.93078710	      0.92178292	      0.54362870	      3.40867985	      5.33446648	    -14.88434011	     14.39724770	     14.39724770	     17.71239244	     -4.11334332	     -1.82484174	     28.13771844	     -7.94993383	      1.56910527	     16.96736371	     16.96736371	      5.31469878	     -0.77212123	      3.16685843	     -7.57497371	      3.93824922	      3.24350628	     55.70318691	    -19.03330303	     -5.51512447	     69.19395242	     45.04897838	      0.00000000	      0.00000000	    -16.02040500	     -7.83057700	     18.60317651	     32.05964010	     43.54075104	      0.00000000	      0.00000000
     48.80857143	     -4.53179206	     -4.07829948	      9.46885414	      0.93162069	      0.92098122	      0.54078692	      2.77612315	      5.65459402	    -15.18387697	     14.06395113	     14.06395113	     17.83537920	     -3.61128722	     -1.79512491	     28.06292808	     -8.07828353	      1.92321622	     17.46505017	     17.46505017	      4.57485072	     -1.18718052	      2.18158671	     -7.57163344	      4.18376039	      2.98952472	     56.69797323	    -18.41159378	     -5.39163278	     70.15362602	     45.02330646	      0.00000000	      0.00000000	    -15.83933242	     -7.68347110	     18.89931002	     31.86692823	     43.53355495	      0.00000000	      0.00000000
     48.83142857	     -4.43932063	     -4.29989143	      9.48977332	      0.93272533	      0.92028534	      0.53768333	      2.31459711	      5.69113089	    -15.49857247	     14.16771147	     14.16771147	     18.20481116	     -2.99886855	     -1.72868445	     27.66529042	     -8.01257067	      2.47389942	     17.49012622	     17.49012622	      2.61183853	     -2.52468205	     -1.14448005	     -7.53535369	      4.21813668	      3.17525989	     57.11756069	    -18.31610247	     -5.30656478	     70.97186187	     45.02493391	      0.00000000	      0.00000000	    -15.44737290	     -7.75210528	     19.68159904	     31.49348128	     43.55272910	      0.00000000	      0.00000000
     48.85428571	     -4.38902811	     -4.47552229	      9.42357832	      0.93394990	      0.91975956	      0.53456218	      1.85234216	      5.72647054	    -15.45074092	     14.16892192	     14.16892192	     18.33108432	     -2.91794486	     -1.73968114	     27.62127734	     -8.00505123	      2.71325799	     18.29910608	     18.29910608	      2.31255785	     -3.03580018	     -1.26805261	     -7.44401498	      4.21286730	      3.36655712	     57.59361461	    -18.06782616	     -5.23478029	     71.20259975	     45.02009718	      0.00000000	      0.00000000	    -15.19539546	     -7.87657964	     19.72323099	     31.53715172	     43.56389030	      0.00000000	      0.00000000
     48.87714286	     -4.39581374	     -4.53490208	      9.28022342	      0.93534390	      0.91952129	      0.53123013	      1.42415813	      5.60131454	    -15.34436473	     14.18209481	     14.18209481	     18.44251801	     -2.82853217	     -1.76277803	     27.47300906	     -7.90849472	      2.81179128	     18.90562675	     18.90562675	      2.04304732	     -3.38279486	     -1.27497095	     -7.29117643	      4.12163570	      3.59233622	     57.80357377	    -17.74944423	     -5.11680951	     71.32287804	     45.01361377	      0.00000000	      0.00000000	    -14.87260048	     -8.15585092	     19.68744991	     31.57152103	     43.57635405	      0.00000000	      0.00000000
     48.90000000	     -4.27430662	     -4.72803653	      9.10727786	      0.93680761	      0.91931545	      0.52761600	      0.85201947	      5.60083377	    -15.35941443	     14.16224778	     14.16224778	     18.49483765	     -2.45668948	     -1.77699411	     27.53165149	     -7.84010730	      3.52844311	     20.14646770	     20.14646770	      2.09385177	     -4.88166417	     -1.36129517	     -7.34685188	      4.18190980	      3.65072184	     58.22315407	    -17.49186032	     -4.95550852	     71.53215529	     45.00699062	      0.00000000	      0.00000000	    -14.57137702	     -8.33985329	     19.74882264	     31.59960886	     43.58816223	      0.00000000	      0.00000000
     48.92285714	     -4.26885863	     -4.69349588	      8.84696528	      0.93834738	      0.91940460	      0.52364257	      0.36457292	      5.27052539	    -15.45660754	     14.16402852	     14.16402852	     18.53771244	     -1.84445054	     -1.83955637	     27.39116212	     -7.44748543	      4.38490458	     20.94185973	     20.94185973	      2.13204604	     -6.83905888	     -0.88705620	     -7.26344533	      4.05489541	      3.75584262	     58.41720753	    -17.26344265	     -4.56352464	     71.44788249	     45.00817466	      0.00000000	      0.00000000	    -14.24264093	     -8.67802473	     19.89845600	     31.69424606	     43.61319206	      0.00000000	      0.00000000
     48.94571429	     -4.18517808	     -4.69425299	      8.51686270	      0.93992281	      0.91959777	      0.51965614	     -0.18850066	      5.00717148	    -15.30736388	     14.17118179	     14.17118179	     18.53499790	     -1.56595948	     -1.84873366	     27.28492115	     -7.26024069	      4.58935009	     21.93476576	     21.93476576	      2.47581160	     -7.77087018	     -0.89285486	     -7.31209863	      3.99862153	      3.97587063	     58.59945898	    -17.07583139	     -4.41331169	     71.37484864	     45.00928506	      0.00000000	      0.00000000	    -13.84866953	     -9.02144980	     19.87308545	     31.79417901	     43.63295174	      0.00000000	      0.00000000
     48.96857143	     -4.20907531	     -4.67576760	      8.16289280	      0.94140614	      0.91980303	      0.51536006	     -0.67656269	      4.64818371	    -15.39238668	     14.08313876	     14.08313876	     18.47289418	     -0.84555899	     -1.93551298	     27.22145668	     -6.88398816	      5.24430277	     22.83477900	     22.83477900	      3.04604423	     -9.46412060	      0.08416462	     -7.23814536	      3.94743741	      4.16155210	     58.78801826	    -16.96541472	     -4.01430408	     70.83167749	     45.02515395	      0.00000000	      0.00000000	    -13.44805901	     -9.45907119	     19.94308671	     32.09186198	     43.66757018	      0.00000000	      0.00000000
